<svg width="24" height="24" viewBox="0 0 24 24" fill="none" xmlns="http://www.w3.org/2000/svg">
<path d="M15.964 6.03599C17.345 4.65499 19.583 4.65499 20.964 6.03599V6.03599C22.345 7.41699 22.345 9.65499 20.964 11.036L15.085 16.915C13.704 18.296 11.466 18.296 10.085 16.915V16.915C8.70399 15.534 8.70399 13.296 10.085 11.915L10.964 11.036" stroke="#444" stroke-width="1.5" stroke-linecap="round" stroke-linejoin="round"/>
<path d="M8.03599 18.964C6.65499 20.345 4.41699 20.345 3.03599 18.964V18.964C1.65499 17.583 1.65499 15.345 3.03599 13.964L8.91499 8.08501C10.296 6.70401 12.534 6.70401 13.915 8.08501V8.08501C15.296 9.46601 15.296 11.704 13.915 13.085L13 14" stroke="#444" stroke-width="1.5" stroke-linecap="round" stroke-linejoin="round"/>
</svg>
