<svg width="24" height="24" viewBox="0 0 24 24" fill="none" xmlns="http://www.w3.org/2000/svg">
<path d="M8.55285 10.1141C9.59438 11.1556 9.59438 12.8443 8.55285 13.8858C7.51132 14.9273 5.82267 14.9273 4.78114 13.8858C3.73961 12.8443 3.73961 11.1556 4.78114 10.1141C5.82267 9.07257 7.51132 9.07257 8.55285 10.1141" stroke="#323232" stroke-width="1.5" stroke-linecap="round" stroke-linejoin="round"/>
<path d="M19.2189 4.78115C20.2604 5.82268 20.2604 7.51133 19.2189 8.55286C18.1774 9.59439 16.4887 9.59439 15.4472 8.55286C14.4057 7.51133 14.4057 5.82268 15.4472 4.78115C16.4887 3.73962 18.1774 3.73962 19.2189 4.78115" stroke="#323232" stroke-width="1.5" stroke-linecap="round" stroke-linejoin="round"/>
<path d="M19.2189 15.4471C20.2604 16.4886 20.2604 18.1773 19.2189 19.2188C18.1774 20.2603 16.4887 20.2603 15.4472 19.2188C14.4057 18.1773 14.4057 16.4886 15.4472 15.4471C16.4887 14.4056 18.1774 14.4056 19.2189 15.4471" stroke="#323232" stroke-width="1.5" stroke-linecap="round" stroke-linejoin="round"/>
<path d="M9.04 10.81L14.96 7.85" stroke="#323232" stroke-width="1.5" stroke-linecap="round" stroke-linejoin="round"/>
<path d="M9.04 13.19L14.96 16.15" stroke="#323232" stroke-width="1.5" stroke-linecap="round" stroke-linejoin="round"/>
</svg>
